<svg width="532" height="427" viewBox="0 0 532 427" fill="none" xmlns="http://www.w3.org/2000/svg">
<path d="M143.152 261.454C143.152 261.454 151.094 244.603 175.697 236.078C175.703 236.078 160.202 253.899 143.152 261.454Z" fill="#3E49E3"/>
<path d="M28.2843 294.774C28.2843 294.774 11.8177 293.224 0 285.863C0 285.863 14.3355 285.476 28.2843 294.774Z" fill="#3E49E3"/>
<path d="M174.347 352.308C174.347 352.308 183.453 358.702 195.657 360.058C195.657 360.058 186.173 353.852 174.347 352.308Z" fill="#3E49E3"/>
<path d="M28.2844 294.774C28.2844 294.774 13.6575 282.284 9.78369 263.972C9.78369 263.972 18.3065 273.464 28.2844 294.774Z" fill="#3E49E3"/>
<path d="M29.6404 295.355C29.6404 295.355 24.9914 278.985 29.8387 261.652C29.8327 261.648 32.6419 279.18 29.6404 295.355Z" fill="#3E49E3"/>
<path d="M29.6404 295.355C29.6404 295.355 12.8823 294.096 2.8092 299.518C2.8092 299.52 19.4701 301.651 29.6404 295.355Z" fill="#3E49E3"/>
<path d="M32.1582 296.808C32.1582 296.808 34.9674 275.111 44.4497 262.709C44.4596 262.713 40.8753 287.413 32.1582 296.808Z" fill="#3E49E3"/>
<path d="M36.1291 299.617C36.1291 299.617 21.5042 299.907 8.13623 308.34C8.14416 308.334 26.1532 309.787 36.1291 299.617Z" fill="#3E49E3"/>
<path d="M36.2263 299.229C36.2263 299.229 40.9724 283.634 53.8547 270.56C53.8547 270.56 48.1391 289.639 36.2263 299.229Z" fill="#3E49E3"/>
<path d="M43.2979 304.556C43.0382 304.72 47.0646 289.447 61.6994 277.437C61.6994 277.437 54.1382 297.68 43.2979 304.556Z" fill="#3E49E3"/>
<path d="M43.2978 304.556C43.2978 304.556 27.1206 306.687 13.6575 316.276C13.6575 316.276 31.9639 315.59 43.2978 304.556Z" fill="#3E49E3"/>
<path d="M49.6895 309.884C49.6895 309.884 53.5633 294.482 69.1576 284.893C69.1576 284.893 62.5717 299.135 49.6895 309.884Z" fill="#3E49E3"/>
<path d="M49.6895 309.885C49.6895 309.885 35.0646 311.821 22.2794 322.475C22.2794 322.475 39.1327 321.894 49.6895 309.885Z" fill="#3E49E3"/>
<path d="M55.9858 316.082C55.9858 316.082 63.8306 299.907 78.5546 288.961C78.5546 288.961 69.9327 309.496 55.9858 316.082Z" fill="#3E49E3"/>
<path d="M55.9859 316.082C55.9859 316.082 40.3916 318.794 28.2844 330.515C28.2844 330.515 46.688 328.278 55.9859 316.082Z" fill="#3E49E3"/>
<path d="M63.1526 324.511C63.1526 324.511 70.4185 307.858 84.9462 294.774C84.9462 294.774 79.1355 315.017 63.1526 324.511Z" fill="#3E49E3"/>
<path d="M63.1526 324.511C63.1526 324.511 49.3029 325.092 31.4802 335.941C31.4802 335.939 52.1121 336.617 63.1526 324.511Z" fill="#3E49E3"/>
<path d="M67.5121 331.773C67.5121 331.773 74.0008 316.857 88.82 306.199C88.82 306.203 83.8756 323.154 67.5121 331.773Z" fill="#3E49E3"/>
<path d="M72.9363 342.235C72.9363 342.235 77.7795 327.705 93.0825 315.501C93.0825 315.501 89.1115 332.451 72.9363 342.235Z" fill="#3E49E3"/>
<path d="M72.9361 342.235C72.9361 342.235 57.9227 334.293 38.8372 342.037C38.8411 342.041 55.8886 348.918 72.9361 342.235Z" fill="#3E49E3"/>
<path d="M76.6156 353.18C76.6156 353.18 64.3242 347.465 50.9482 349.596C50.9482 349.596 66.5426 357.635 76.6156 353.18Z" fill="#3E49E3"/>
<path d="M76.6157 353.18C76.6157 353.18 81.3618 340.007 92.5015 331.484C92.5015 331.484 85.4299 349.983 76.6157 353.18Z" fill="#3E49E3"/>
<path d="M79.0284 361.753C79.0284 361.753 84.171 349.402 91.9147 343.688C91.9206 343.688 89.8767 357.199 79.0284 361.753Z" fill="#3E49E3"/>
<path d="M139.187 265.619C139.187 265.619 150.133 244.117 155.654 231.322C155.654 231.334 137.25 248.383 139.187 265.619Z" fill="#3E49E3"/>
<path d="M139.188 265.619C139.188 265.619 157.107 256.999 171.248 254.093C171.248 254.093 158.172 267.459 139.188 265.619Z" fill="#3E49E3"/>
<path d="M136.475 268.718C136.475 268.718 137.637 252.156 132.51 236.948C132.504 236.948 128.436 254.19 136.475 268.718Z" fill="#3E49E3"/>
<path d="M136.475 268.718C136.475 268.718 156.719 265.522 172.313 268.52C172.313 268.526 149.744 275.209 136.475 268.718Z" fill="#3E49E3"/>
<path d="M133.182 272.594C133.182 272.594 131.148 255.941 120.784 243.631C120.784 243.625 123.206 263.004 133.182 272.594Z" fill="#3E49E3"/>
<path d="M133.182 272.594C133.182 272.594 143.642 270.946 162.24 278.404C162.24 278.404 142.577 280.73 133.182 272.594Z" fill="#3E49E3"/>
<path d="M128.242 279.277C128.242 279.277 126.103 262.132 113.036 248.185C113.036 248.185 113.415 267.17 128.242 279.277Z" fill="#3E49E3"/>
<path d="M128.242 279.277C128.242 279.277 145.49 279.475 155.654 289.059C155.654 289.059 138.51 288.672 128.242 279.277Z" fill="#3E49E3"/>
<path d="M123.304 286.735C123.304 286.735 117.588 267.362 105.092 255.062C105.088 255.063 105.485 274.628 123.304 286.735Z" fill="#3E49E3"/>
<path d="M123.304 286.735C123.304 286.735 141.705 288.477 151.005 298.842C151.005 298.842 135.314 298.551 123.304 286.735Z" fill="#3E49E3"/>
<path d="M117.007 297.097C117.007 297.097 135.797 295.161 147.615 303.878C147.615 303.878 129.695 305.331 117.007 297.097Z" fill="#3E49E3"/>
<path d="M117.007 297.098C117.007 297.098 115.748 282.086 100.727 265.522C100.727 265.522 101.322 288.283 117.007 297.098Z" fill="#3E49E3"/>
<path d="M112.745 305.719C112.745 305.719 107.418 290.214 95.6003 273.958C95.6003 273.958 94.5357 292.643 112.745 305.719Z" fill="#3E49E3"/>
<path d="M112.745 305.719C112.745 305.719 127.275 303.782 143.061 310.465C143.061 310.465 127.37 314.145 112.745 305.719Z" fill="#3E49E3"/>
<path d="M108.193 315.695C108.193 315.695 103.931 300.295 94.1489 291.481C94.1489 291.481 97.0533 307.66 108.193 315.695Z" fill="#3E49E3"/>
<path d="M108.193 315.695C108.193 315.695 121.277 310.077 137.93 317.438C137.928 317.438 124.174 321.7 108.193 315.695Z" fill="#3E49E3"/>
<path d="M104.222 326.738C104.222 326.738 103.641 313.08 92.4043 304.556C92.4003 304.556 94.5355 317.535 104.222 326.738Z" fill="#3E49E3"/>
<path d="M104.222 326.738C104.222 326.738 116.135 321.216 131.729 325.382C131.729 325.382 116.91 332.065 104.222 326.738Z" fill="#3E49E3"/>
<path d="M101.322 337.683C101.322 337.683 113.042 330.612 128.637 333.421C128.631 333.421 116.038 339.91 101.322 337.683Z" fill="#3E49E3"/>
<path d="M174.347 352.308C174.347 352.308 189.069 353.083 195.657 346.206C195.657 346.206 182.967 346.497 174.347 352.308Z" fill="#3E49E3"/>
<path d="M159.819 351.244C159.819 351.244 176.77 349.983 188.974 340.49C188.974 340.49 169.123 341.759 159.819 351.244Z" fill="#3E49E3"/>
<path d="M167.956 351.63C167.956 351.63 179.577 355.595 185.487 364.61C185.487 364.61 174.153 360.347 167.956 351.63Z" fill="#3E49E3"/>
<path d="M159.819 351.244C159.819 351.244 170.668 353.47 174.444 367.127C174.444 367.135 165.727 360.736 159.819 351.244Z" fill="#3E49E3"/>
<path d="M152.361 352.405C152.361 352.405 162.434 357.151 167.47 367.419C167.47 367.419 158.172 363.156 152.361 352.405Z" fill="#3E49E3"/>
<path d="M152.361 352.405C152.361 352.405 167.761 344.463 175.8 335.066C175.8 335.066 158.753 340.976 152.361 352.405Z" fill="#3E49E3"/>
<path d="M145.29 353.761C145.29 353.761 155.557 345.819 163.402 334.293C163.402 334.293 148.388 341.944 145.29 353.761Z" fill="#3E49E3"/>
<path d="M145.29 353.761C145.29 353.761 153.329 357.151 160.012 367.611C160.004 367.611 148.293 363.737 145.29 353.761Z" fill="#3E49E3"/>
<path d="M136.862 356.571C136.862 356.571 147.421 348.442 155.751 333.615C155.751 333.615 142.383 340.395 136.862 356.571Z" fill="#3E49E3"/>
<path d="M136.862 356.57C136.862 356.57 146.354 357.829 155.168 370.42C155.168 370.42 143.061 367.708 136.767 356.957" fill="#3E49E3"/>
<path d="M129.309 360.25C129.309 360.25 138.032 352.122 145.387 336.327C145.387 336.327 132.602 344.269 129.309 360.25Z" fill="#3E49E3"/>
<path d="M129.309 360.25C129.309 360.25 138.896 361.219 146.937 370.906C146.937 370.902 135.314 368.775 129.309 360.25Z" fill="#3E49E3"/>
<path d="M122.043 364.804C122.043 364.804 128.631 354.633 132.504 340.976C132.504 340.976 122.043 353.277 122.043 364.804Z" fill="#3E49E3"/>
<path d="M122.043 364.804C122.043 364.804 131.343 363.737 138.412 369.937C138.412 369.937 129.017 370.809 122.043 364.804Z" fill="#3E49E3"/>
<path d="M118.266 367.708C118.266 367.708 121.27 358.024 119.816 347.271C119.816 347.271 114.585 358.016 118.266 367.708Z" fill="#3E49E3"/>
<path d="M127.08 424.953H61.3128L53.0795 370.615H135.314L127.08 424.953Z" fill="white"/>
<path d="M81.2171 425.468C81.0495 425.468 80.8881 425.405 80.7656 425.29C80.6431 425.176 80.5685 425.019 80.557 424.852L76.8775 370.805C76.8716 370.718 76.8829 370.631 76.9106 370.549C76.9383 370.467 76.9819 370.391 77.039 370.326C77.0961 370.26 77.1655 370.207 77.2432 370.168C77.3209 370.13 77.4055 370.107 77.492 370.101C77.5786 370.095 77.6655 370.107 77.7477 370.134C77.8299 370.162 77.9059 370.206 77.9712 370.263C78.0366 370.32 78.0901 370.389 78.1286 370.467C78.1671 370.545 78.19 370.629 78.1958 370.716L81.8773 424.763C81.8882 424.937 81.8298 425.109 81.7147 425.241C81.5996 425.373 81.4372 425.454 81.2627 425.466L81.2171 425.468Z" fill="#97B8FF"/>
<path d="M106.982 425.468H106.936C106.762 425.456 106.599 425.375 106.484 425.243C106.369 425.111 106.311 424.939 106.321 424.765L110.003 370.718C110.009 370.631 110.032 370.547 110.07 370.469C110.109 370.391 110.162 370.322 110.228 370.265C110.293 370.208 110.369 370.164 110.451 370.136C110.533 370.108 110.62 370.097 110.707 370.103C110.793 370.109 110.878 370.132 110.956 370.17C111.033 370.209 111.103 370.262 111.16 370.328C111.217 370.393 111.261 370.469 111.288 370.551C111.316 370.633 111.327 370.72 111.321 370.807L107.642 424.854C107.63 425.021 107.555 425.177 107.433 425.291C107.31 425.405 107.149 425.468 106.982 425.468Z" fill="#97B8FF"/>
<path d="M96.2781 370.985C96.1037 370.985 95.9364 370.916 95.8127 370.793C95.689 370.67 95.619 370.503 95.6179 370.329C95.6179 369.734 95.7706 310.021 142.68 260.998C142.74 260.935 142.812 260.885 142.892 260.85C142.971 260.815 143.057 260.796 143.144 260.794C143.23 260.792 143.317 260.807 143.398 260.839C143.479 260.87 143.552 260.917 143.615 260.977C143.678 261.037 143.728 261.109 143.763 261.189C143.798 261.268 143.817 261.354 143.819 261.44C143.821 261.527 143.806 261.613 143.775 261.694C143.743 261.775 143.696 261.849 143.636 261.912C97.0929 310.553 96.9363 369.728 96.9403 370.319C96.9413 370.494 96.8728 370.663 96.7498 370.788C96.6268 370.913 96.4593 370.984 96.284 370.985H96.2781Z" fill="#060305"/>
<path d="M80.2 370.791C80.0364 370.791 79.8787 370.73 79.7574 370.62C79.6362 370.51 79.5601 370.359 79.5438 370.196C76.1736 338.397 57.3755 311.118 27.9711 295.353C27.8261 295.265 27.7203 295.125 27.6756 294.961C27.6308 294.798 27.6505 294.623 27.7306 294.474C27.8106 294.325 27.945 294.211 28.1059 294.158C28.2668 294.105 28.4421 294.115 28.5955 294.187C58.3925 310.162 77.4404 337.816 80.8562 370.057C80.8656 370.144 80.8575 370.232 80.8325 370.316C80.8076 370.399 80.7662 370.477 80.7108 370.545C80.6555 370.612 80.5873 370.668 80.5101 370.709C80.433 370.75 80.3485 370.775 80.2615 370.783L80.2 370.791Z" fill="#060305"/>
<path d="M115.457 371.18C115.327 371.18 115.201 371.142 115.092 371.071C114.984 371 114.899 370.899 114.848 370.78C114.797 370.661 114.782 370.53 114.805 370.402C114.828 370.275 114.888 370.157 114.977 370.063C115.207 369.82 138.494 345.661 174.452 351.656C174.625 351.685 174.78 351.781 174.882 351.923C174.984 352.066 175.025 352.243 174.996 352.416C174.968 352.589 174.872 352.744 174.729 352.846C174.586 352.948 174.409 352.989 174.236 352.96C138.991 347.088 116.161 370.732 115.933 370.971C115.872 371.037 115.798 371.089 115.717 371.125C115.635 371.161 115.546 371.179 115.457 371.18Z" fill="#060305"/>
<path d="M189.481 185.986C189.86 185.986 208.46 194.281 208.46 194.281L201.799 217.782L189.481 185.986Z" fill="white"/>
<path d="M204.122 197.687C195.831 197.687 190.094 192.182 190.025 192.114C189.907 191.99 189.841 191.825 189.843 191.653C189.844 191.482 189.912 191.318 190.032 191.195C190.152 191.073 190.314 191.002 190.486 190.997C190.657 190.992 190.824 191.053 190.95 191.169C191.026 191.244 198.694 198.569 208.91 195.699C208.994 195.673 209.083 195.664 209.17 195.673C209.258 195.682 209.343 195.708 209.42 195.75C209.497 195.792 209.566 195.849 209.62 195.918C209.675 195.987 209.716 196.066 209.74 196.151C209.764 196.236 209.77 196.325 209.759 196.412C209.748 196.499 209.72 196.584 209.676 196.66C209.632 196.736 209.573 196.803 209.502 196.856C209.432 196.909 209.352 196.948 209.267 196.969C207.593 197.444 205.862 197.685 204.122 197.687Z" fill="#97B8FF"/>
<path d="M199.455 406.042C196.283 419.364 196.242 424.957 202.788 424.957H242.018C248.598 424.957 254.365 424.065 254.836 419.866C240.259 418.609 223.753 413.835 217.805 406.042C211.858 398.249 199.455 406.042 199.455 406.042Z" fill="white"/>
<path d="M170.547 406.042C162.085 421.878 167.363 425.397 178.171 425.397C188.98 425.397 214.114 425.145 219.895 425.145C225.676 425.145 224.923 420.621 224.923 420.621C224.923 420.621 194.007 418.609 187.975 405.792C181.942 392.975 170.547 406.042 170.547 406.042Z" fill="white"/>
<path d="M162.504 337.927C162.504 337.927 158.483 371.859 170.547 406.042H188.897L193.922 333.403L162.504 337.927Z" fill="#060305"/>
<path d="M195.431 337.927C195.431 337.927 193.421 367.084 199.452 406.042H217.802L226.85 333.403L195.431 337.927Z" fill="#060305"/>
<path d="M219.8 151.187C226.495 161.667 218.634 171.564 218.634 171.564L211.35 149.005L219.8 151.187Z" fill="#97B8FF"/>
<path d="M181.375 156.136C177.59 168.943 184.432 172.59 184.432 172.59C184.432 172.59 187.342 181.177 196.948 177.103C206.553 173.029 195.784 154.833 194.62 155.707C193.456 156.582 181.375 156.136 181.375 156.136Z" fill="white"/>
<path d="M191.198 167.051C196.438 190.921 222.928 187.719 222.054 168.507C221.18 149.294 209.538 141.148 204.59 142.018C199.642 142.889 188.871 154.825 190.035 160.939L191.198 167.051Z" fill="#F9C5C7"/>
<path d="M191.198 162.103C181.732 151.865 180.947 173.984 194.111 172L191.198 162.103Z" fill="#F9C5C7"/>
<path d="M191.995 168.183C190.64 173.679 188.85 179.057 186.643 184.269C186.643 184.269 194.686 194.993 206.414 193.984L207.084 174.21L191.995 168.183Z" fill="#F9C5C7"/>
<path d="M202.915 139.98C218.343 129.792 224.457 152.498 224.457 152.498C224.457 152.498 216.015 155.408 207.574 143.18L202.915 139.98Z" fill="white"/>
<path d="M174.569 187.285L173.229 184.604L186.635 179.912C186.635 179.912 194.007 194.156 201.715 209.739C201.715 209.739 205.401 197.675 207.068 187.285L213.771 189.295L213.101 190.972C213.101 190.972 221.479 192.982 231.538 204.713C241.597 216.443 252.315 229.847 252.315 229.847L287.504 248.948L286.164 268.052C286.164 268.052 246.619 271.739 229.526 243.923C229.526 243.923 227.851 249.285 225.164 251.296V253.976C225.164 253.976 228.18 258.877 230.442 271.947C232.704 285.018 235.218 341.823 235.218 341.823C235.218 341.823 151.687 342.116 151.519 341.612C151.35 341.109 151.77 297.712 159.98 266.712C132.843 255.986 146.083 193.151 174.569 187.285Z" fill="#ED746D"/>
<path d="M215.672 424.897L230.107 409.767C230.107 409.767 259.224 412.836 260.078 424.897H215.672Z" fill="#3E49E3"/>
<path d="M182.929 424.897L197.362 409.767C197.362 409.767 226.481 412.836 227.335 424.897H182.929Z" fill="#3E49E3"/>
<path d="M194.121 262.588C194.121 262.588 201.803 267.132 206.329 272.806C210.855 278.48 213.279 287.225 214.051 290.864C214.051 290.864 213.23 292.054 212.304 290.958L213.674 295.274C213.674 295.274 211.578 296.38 209.59 292.821L210.022 295.513C210.022 295.513 207.397 296.634 205.102 291.225C205.102 291.225 203.379 292.377 200.421 288.099C197.463 283.821 191.264 276.963 188.129 269.19L194.121 262.588Z" fill="#F9C5C7"/>
<path d="M185.209 271.975H185.181C184.477 271.934 167.876 270.921 159.732 267.312C159.581 267.236 159.465 267.104 159.408 266.944C159.351 266.784 159.357 266.609 159.426 266.454C159.494 266.299 159.62 266.176 159.777 266.111C159.933 266.045 160.109 266.043 160.267 266.103C168.197 269.616 185.088 270.645 185.259 270.663C185.428 270.676 185.587 270.754 185.701 270.88C185.815 271.007 185.875 271.173 185.87 271.343C185.865 271.513 185.795 271.675 185.673 271.795C185.552 271.914 185.389 271.982 185.219 271.985L185.209 271.975Z" fill="#F9C5C7"/>
<path d="M196.521 260.417C196.43 260.418 196.34 260.4 196.256 260.364C196.173 260.327 196.097 260.274 196.036 260.207C195.942 260.106 186.648 250.196 171.407 244.545C171.26 244.491 171.137 244.386 171.06 244.249C170.983 244.112 170.958 243.952 170.989 243.798C171.02 243.634 174.256 227.107 174.999 214.731C175.012 214.557 175.091 214.394 175.222 214.278C175.352 214.162 175.523 214.102 175.697 214.11C175.784 214.115 175.869 214.137 175.947 214.175C176.025 214.213 176.095 214.266 176.153 214.331C176.21 214.396 176.255 214.472 176.283 214.554C176.311 214.636 176.323 214.723 176.318 214.81C175.648 225.995 172.959 240.517 172.39 243.505C187.632 249.303 196.912 259.212 197.005 259.313C197.093 259.407 197.152 259.525 197.173 259.651C197.195 259.778 197.179 259.909 197.128 260.026C197.077 260.144 196.992 260.245 196.884 260.315C196.776 260.385 196.65 260.422 196.521 260.421V260.417Z" fill="#F9C5C7"/>
<path d="M225.175 251.952H186.966C186.797 251.943 186.638 251.869 186.521 251.746C186.405 251.623 186.34 251.46 186.34 251.291C186.34 251.121 186.405 250.959 186.521 250.836C186.638 250.713 186.797 250.639 186.966 250.63H225.173C225.342 250.639 225.501 250.713 225.617 250.836C225.734 250.959 225.798 251.121 225.798 251.291C225.798 251.46 225.734 251.623 225.617 251.746C225.501 251.869 225.342 251.943 225.173 251.952H225.175Z" fill="#F9C5C7"/>
<path d="M225.174 254.636H190.99C190.815 254.636 190.647 254.567 190.523 254.443C190.4 254.319 190.33 254.151 190.33 253.976C190.33 253.801 190.4 253.633 190.523 253.509C190.647 253.385 190.815 253.316 190.99 253.316H225.174C225.35 253.316 225.518 253.385 225.641 253.509C225.765 253.633 225.835 253.801 225.835 253.976C225.835 254.151 225.765 254.319 225.641 254.443C225.518 254.567 225.35 254.636 225.174 254.636Z" fill="#F9C5C7"/>
<path d="M220.65 295.105C220.49 295.105 220.335 295.047 220.214 294.941C220.093 294.835 220.015 294.689 219.994 294.53L214.72 254.565C214.709 254.479 214.715 254.391 214.737 254.308C214.76 254.224 214.799 254.145 214.851 254.076C214.904 254.008 214.97 253.95 215.045 253.906C215.12 253.863 215.203 253.835 215.289 253.824C215.376 253.812 215.463 253.818 215.547 253.84C215.631 253.863 215.709 253.902 215.778 253.954C215.847 254.007 215.905 254.073 215.948 254.148C215.991 254.223 216.02 254.306 216.031 254.393L221.219 293.68L224.421 293.146L218.241 254.583C218.214 254.41 218.256 254.233 218.359 254.091C218.462 253.949 218.617 253.854 218.79 253.827C218.963 253.799 219.139 253.841 219.281 253.944C219.423 254.047 219.518 254.202 219.546 254.375L225.823 293.585C225.85 293.757 225.808 293.934 225.706 294.076C225.604 294.217 225.45 294.313 225.277 294.342L220.753 295.095C220.719 295.101 220.685 295.105 220.65 295.105Z" fill="#F9C5C7"/>
<path d="M224.671 286.559C224.504 286.56 224.343 286.499 224.219 286.387C224.096 286.274 224.019 286.119 224.006 285.953C223.992 285.787 224.042 285.621 224.145 285.49C224.248 285.359 224.397 285.272 224.562 285.246L226.905 284.85L220.759 254.353C220.734 254.185 220.774 254.013 220.872 253.874C220.969 253.735 221.117 253.639 221.283 253.605C221.45 253.571 221.623 253.603 221.767 253.694C221.911 253.784 222.014 253.926 222.056 254.091L228.335 285.258C228.354 285.345 228.355 285.435 228.339 285.523C228.323 285.61 228.289 285.693 228.239 285.768C228.19 285.842 228.126 285.905 228.051 285.954C227.977 286.002 227.893 286.035 227.805 286.051L224.79 286.553C224.751 286.559 224.711 286.561 224.671 286.559Z" fill="#F9C5C7"/>
<path d="M221.907 342.483C221.88 342.485 221.852 342.485 221.824 342.483C221.65 342.461 221.493 342.371 221.385 342.232C221.278 342.094 221.23 341.919 221.251 341.745C222.984 327.884 221.761 294.806 221.749 294.473C221.745 294.386 221.759 294.299 221.789 294.218C221.819 294.137 221.865 294.062 221.924 293.998C221.983 293.934 222.053 293.883 222.132 293.847C222.211 293.81 222.296 293.79 222.383 293.787C222.47 293.782 222.558 293.794 222.64 293.824C222.722 293.853 222.798 293.899 222.862 293.959C222.926 294.018 222.977 294.09 223.013 294.17C223.048 294.25 223.067 294.336 223.069 294.423C223.083 294.756 224.308 327.941 222.561 341.908C222.541 342.067 222.463 342.213 222.343 342.319C222.223 342.425 222.068 342.483 221.907 342.483Z" fill="#F9C5C7"/>
<path d="M213.361 251.873C213.253 251.873 213.148 251.846 213.053 251.796C212.958 251.746 212.876 251.674 212.815 251.585C212.506 251.135 181.771 206.321 173.958 187.539C173.92 187.458 173.898 187.369 173.894 187.28C173.89 187.19 173.905 187.1 173.937 187.016C173.969 186.932 174.018 186.856 174.081 186.791C174.143 186.727 174.219 186.676 174.302 186.641C174.385 186.607 174.474 186.59 174.564 186.591C174.654 186.592 174.742 186.611 174.824 186.648C174.907 186.684 174.98 186.737 175.041 186.803C175.103 186.869 175.15 186.946 175.18 187.031C182.939 205.686 213.597 250.388 213.906 250.838C213.973 250.937 214.013 251.053 214.02 251.173C214.026 251.293 214 251.413 213.944 251.519C213.888 251.626 213.804 251.715 213.702 251.777C213.599 251.839 213.481 251.872 213.361 251.873Z" fill="#F9C5C7"/>
<path d="M217.381 251.119C217.233 251.119 217.09 251.069 216.974 250.978C216.858 250.887 216.776 250.759 216.741 250.616C212.974 235.333 210.256 228.884 201.119 210.028C201.074 209.949 201.047 209.862 201.038 209.773C201.028 209.683 201.038 209.592 201.065 209.506C201.092 209.42 201.136 209.34 201.195 209.272C201.254 209.204 201.326 209.148 201.407 209.109C201.489 209.069 201.577 209.047 201.667 209.043C201.757 209.039 201.847 209.054 201.932 209.086C202.016 209.118 202.093 209.167 202.158 209.23C202.222 209.292 202.274 209.368 202.308 209.451C211.491 228.408 214.233 234.897 218.021 250.301C218.062 250.47 218.033 250.648 217.943 250.797C217.852 250.945 217.707 251.052 217.538 251.094C217.487 251.108 217.434 251.116 217.381 251.119Z" fill="#F9C5C7"/>
<path d="M207.078 220.706C207.034 220.706 206.99 220.701 206.947 220.692C206.862 220.675 206.781 220.641 206.709 220.593C206.637 220.545 206.576 220.483 206.528 220.411C206.48 220.338 206.446 220.257 206.429 220.172C206.413 220.087 206.413 220 206.43 219.915C209.404 205.002 212.433 190.97 212.463 190.832C212.507 190.668 212.613 190.528 212.758 190.44C212.903 190.351 213.076 190.322 213.242 190.358C213.407 190.394 213.553 190.492 213.648 190.632C213.744 190.772 213.782 190.944 213.755 191.111C213.725 191.25 210.704 205.27 207.724 220.175C207.695 220.324 207.614 220.459 207.496 220.556C207.378 220.652 207.231 220.706 207.078 220.706Z" fill="#F9C5C7"/>
<path d="M229.53 244.583C229.427 244.583 229.325 244.558 229.233 244.511C229.14 244.464 229.061 244.397 228.999 244.313C228.938 244.23 228.897 244.134 228.88 244.032C228.862 243.93 228.869 243.825 228.9 243.727C234.11 226.875 222.972 209.267 222.859 209.09C222.764 208.943 222.732 208.764 222.769 208.593C222.807 208.421 222.911 208.272 223.058 208.177C223.206 208.083 223.385 208.051 223.556 208.088C223.727 208.125 223.876 208.229 223.971 208.377C224.086 208.557 235.553 226.683 230.162 244.117C230.12 244.252 230.036 244.37 229.923 244.454C229.809 244.538 229.671 244.583 229.53 244.583Z" fill="#F9C5C7"/>
<path d="M189.741 168.291H189.65C186.387 167.847 186.081 163.465 186.064 163.279C186.061 163.108 186.123 162.943 186.239 162.818C186.354 162.693 186.514 162.617 186.684 162.606C186.854 162.595 187.022 162.651 187.152 162.76C187.283 162.87 187.366 163.026 187.384 163.196C187.384 163.231 187.638 166.683 189.828 166.982C189.994 167.005 190.145 167.089 190.251 167.219C190.357 167.348 190.41 167.513 190.399 167.68C190.388 167.847 190.313 168.004 190.191 168.118C190.069 168.232 189.908 168.296 189.741 168.297V168.291Z" fill="#ED746D"/>
<path d="M206.699 184.636C206.663 184.639 206.627 184.639 206.59 184.636C194.366 182.576 191.509 171.813 191.482 171.704C191.439 171.534 191.465 171.354 191.554 171.204C191.644 171.053 191.79 170.945 191.96 170.901C192.129 170.858 192.309 170.884 192.46 170.974C192.61 171.064 192.719 171.209 192.762 171.379C192.868 171.788 195.457 181.421 206.808 183.332C206.973 183.357 207.122 183.445 207.226 183.576C207.329 183.707 207.378 183.872 207.365 184.039C207.351 184.205 207.274 184.36 207.151 184.472C207.028 184.584 206.866 184.646 206.699 184.644V184.636Z" fill="#ED746D"/>
<path d="M208.268 165.424C207.936 165.423 207.618 165.298 207.374 165.074C207.13 164.85 206.979 164.542 206.951 164.212L206.83 162.793C206.808 162.448 206.923 162.108 207.149 161.846C207.375 161.584 207.694 161.421 208.039 161.392C208.384 161.363 208.726 161.47 208.993 161.69C209.259 161.911 209.429 162.227 209.465 162.571L209.586 163.99C209.615 164.339 209.505 164.686 209.279 164.953C209.053 165.221 208.73 165.388 208.381 165.418L208.268 165.424Z" fill="#060305"/>
<path d="M218.487 164.722C218.156 164.722 217.837 164.597 217.593 164.373C217.349 164.148 217.199 163.841 217.171 163.511L217.05 162.091C217.028 161.746 217.142 161.406 217.368 161.144C217.594 160.882 217.914 160.719 218.259 160.69C218.603 160.661 218.946 160.768 219.212 160.989C219.479 161.209 219.648 161.525 219.685 161.869L219.806 163.289C219.835 163.638 219.724 163.984 219.498 164.252C219.272 164.519 218.949 164.686 218.6 164.716L218.487 164.722Z" fill="#060305"/>
<path d="M217.718 172.238C217.586 172.238 217.457 172.198 217.347 172.124C217.238 172.049 217.153 171.944 217.104 171.821C216.043 169.171 213.565 164.781 213.535 164.738C213.493 164.662 213.465 164.579 213.455 164.493C213.444 164.407 213.451 164.32 213.474 164.236C213.497 164.152 213.536 164.074 213.59 164.006C213.643 163.938 213.71 163.88 213.785 163.838C213.861 163.795 213.944 163.768 214.03 163.757C214.116 163.747 214.203 163.753 214.287 163.776C214.37 163.799 214.449 163.839 214.517 163.892C214.585 163.946 214.642 164.012 214.685 164.088C214.79 164.27 217.235 168.598 218.327 171.33C218.367 171.43 218.382 171.538 218.371 171.646C218.359 171.753 218.322 171.856 218.261 171.946C218.201 172.035 218.119 172.109 218.024 172.16C217.929 172.21 217.822 172.237 217.714 172.238H217.718Z" fill="#060305"/>
<path d="M212.897 175.531C210.948 175.531 208.858 174.706 207.346 172.638C207.294 172.568 207.256 172.489 207.235 172.404C207.213 172.32 207.209 172.232 207.221 172.146C207.234 172.059 207.263 171.976 207.308 171.902C207.353 171.827 207.412 171.761 207.482 171.709C207.551 171.657 207.631 171.619 207.715 171.598C207.8 171.577 207.888 171.572 207.974 171.585C208.06 171.597 208.143 171.627 208.218 171.672C208.293 171.716 208.358 171.775 208.41 171.845C210.218 174.305 213.004 174.599 214.953 173.802C215.113 173.747 215.288 173.755 215.442 173.825C215.597 173.895 215.718 174.022 215.782 174.179C215.846 174.336 215.847 174.511 215.785 174.669C215.723 174.827 215.604 174.955 215.45 175.027C214.639 175.358 213.772 175.529 212.897 175.531Z" fill="#060305"/>
<path d="M202.134 159.754C201.99 159.754 201.85 159.706 201.735 159.619C201.621 159.533 201.537 159.411 201.498 159.272C201.459 159.134 201.466 158.986 201.518 158.852C201.57 158.718 201.664 158.604 201.787 158.529L202.463 158.112C205.369 156.308 207.665 154.883 211.089 155.733C211.252 155.782 211.39 155.891 211.474 156.039C211.559 156.186 211.584 156.361 211.543 156.526C211.503 156.691 211.4 156.834 211.257 156.926C211.113 157.018 210.94 157.051 210.773 157.018C207.889 156.304 206.015 157.474 203.159 159.24L202.481 159.661C202.376 159.724 202.256 159.756 202.134 159.754Z" fill="#060305"/>
<path d="M215.664 155.103C215.577 155.105 215.491 155.091 215.41 155.06C215.329 155.029 215.255 154.983 215.192 154.924C215.128 154.864 215.078 154.793 215.042 154.714C215.006 154.635 214.987 154.549 214.984 154.463C214.982 154.376 214.996 154.289 215.027 154.208C215.058 154.127 215.104 154.053 215.164 153.99C215.223 153.927 215.294 153.876 215.373 153.84C215.453 153.805 215.538 153.785 215.625 153.783L218.346 153.616C218.521 153.605 218.693 153.664 218.824 153.78C218.956 153.896 219.036 154.06 219.046 154.235C219.057 154.409 218.998 154.581 218.882 154.713C218.766 154.844 218.603 154.924 218.428 154.934L215.706 155.103H215.664Z" fill="#060305"/>
<path d="M209.61 145.801C208.446 160.648 184.383 169.119 180.501 160.075C173.514 143.765 206.408 128.046 209.61 145.801Z" fill="white"/>
<path d="M260.078 425.639H164.934C164.765 425.629 164.606 425.556 164.489 425.433C164.373 425.31 164.308 425.147 164.308 424.978C164.308 424.808 164.373 424.645 164.489 424.522C164.606 424.399 164.765 424.326 164.934 424.316H260.078C260.168 424.311 260.258 424.325 260.343 424.356C260.427 424.387 260.504 424.435 260.57 424.497C260.635 424.559 260.687 424.633 260.723 424.716C260.758 424.799 260.777 424.888 260.777 424.978C260.777 425.068 260.758 425.157 260.723 425.239C260.687 425.322 260.635 425.397 260.57 425.458C260.504 425.52 260.427 425.568 260.343 425.599C260.258 425.63 260.168 425.644 260.078 425.639Z" fill="#060305"/>
<path d="M227.335 425.558C227.295 425.558 227.256 425.555 227.216 425.548C227.044 425.516 226.891 425.417 226.792 425.273C226.692 425.129 226.654 424.951 226.685 424.779C226.685 424.759 227.082 421.821 222.149 418.266C222.079 418.215 222.019 418.151 221.973 418.077C221.928 418.003 221.897 417.921 221.883 417.836C221.869 417.75 221.872 417.662 221.892 417.578C221.912 417.493 221.949 417.414 221.999 417.343C222.05 417.273 222.114 417.213 222.188 417.167C222.262 417.122 222.344 417.091 222.43 417.077C222.515 417.063 222.603 417.066 222.688 417.086C222.772 417.106 222.852 417.143 222.922 417.193C228.598 421.287 228.013 424.868 227.986 425.016C227.957 425.168 227.877 425.306 227.758 425.404C227.639 425.503 227.49 425.557 227.335 425.558Z" fill="#060305"/>
<path d="M453.106 424.826C453.02 424.826 452.934 424.809 452.853 424.776C452.773 424.743 452.7 424.695 452.638 424.633C452.577 424.572 452.528 424.499 452.495 424.419C452.461 424.339 452.444 424.253 452.444 424.166V107.709C452.444 107.622 452.461 107.536 452.495 107.456C452.528 107.376 452.577 107.303 452.638 107.241C452.7 107.18 452.773 107.131 452.853 107.098C452.933 107.064 453.02 107.047 453.106 107.047H521.316C521.485 107.056 521.645 107.13 521.761 107.253C521.877 107.376 521.942 107.539 521.942 107.708C521.942 107.878 521.877 108.041 521.761 108.164C521.645 108.286 521.485 108.36 521.316 108.369H453.767V424.16C453.767 424.247 453.751 424.334 453.718 424.414C453.685 424.495 453.637 424.569 453.575 424.631C453.514 424.692 453.441 424.742 453.36 424.775C453.28 424.809 453.194 424.826 453.106 424.826Z" fill="white"/>
<path d="M522.008 425.752H339.024C338.937 425.752 338.851 425.735 338.77 425.702C338.69 425.669 338.617 425.621 338.555 425.559C338.494 425.498 338.445 425.425 338.412 425.345C338.379 425.265 338.361 425.179 338.361 425.092V37.2473C338.361 37.1605 338.379 37.0745 338.412 36.9942C338.445 36.914 338.494 36.8411 338.555 36.7798C338.617 36.7185 338.69 36.6699 338.77 36.6368C338.851 36.6038 338.937 36.5869 339.024 36.5872H522.008C522.183 36.5872 522.351 36.6567 522.475 36.7805C522.599 36.9043 522.668 37.0722 522.668 37.2473V425.092C522.668 425.267 522.599 425.435 522.475 425.558C522.351 425.682 522.183 425.752 522.008 425.752ZM339.696 424.43H521.354V37.9095H339.696V424.43Z" fill="white"/>
<path d="M333.913 425.092H269.194V0L333.913 37.2472V425.092Z" fill="white"/>
<path d="M261.823 425.092H269.194V0L261.823 1.31837V425.092Z" fill="#3E49E3"/>
<path d="M306.199 136.041C300.565 136.041 295.981 129.677 295.981 121.856C295.981 114.035 300.565 107.672 306.199 107.672C311.834 107.672 316.415 114.035 316.415 121.856C316.415 129.677 311.832 136.041 306.199 136.041ZM306.199 108.992C301.295 108.992 297.304 114.763 297.304 121.856C297.304 128.95 301.295 134.719 306.199 134.719C311.104 134.719 315.093 128.95 315.093 121.856C315.093 114.763 311.104 108.992 306.199 108.992Z" fill="#97B8FF"/>
<path d="M306.837 128.664C306.145 128.664 305.309 128.395 304.369 127.566C304.238 127.45 304.158 127.287 304.147 127.112C304.136 126.937 304.195 126.765 304.311 126.633C304.427 126.502 304.59 126.422 304.765 126.411C304.94 126.4 305.112 126.459 305.243 126.575C306.732 127.889 307.555 127.181 307.821 126.949C309.05 125.895 309.559 123.044 308.745 121.779C308.586 121.535 308.11 120.788 306.482 121.549C306.357 121.608 306.217 121.625 306.081 121.6C305.946 121.574 305.821 121.507 305.726 121.407C305.631 121.307 305.569 121.18 305.55 121.044C305.53 120.907 305.554 120.768 305.618 120.645L307.971 116.129H304.799C304.624 116.129 304.456 116.059 304.333 115.936C304.209 115.812 304.139 115.644 304.139 115.469C304.139 115.294 304.209 115.126 304.333 115.002C304.456 114.878 304.624 114.809 304.799 114.809H309.056C309.17 114.807 309.283 114.835 309.383 114.89C309.483 114.945 309.567 115.025 309.627 115.123C309.687 115.22 309.721 115.331 309.725 115.445C309.729 115.559 309.703 115.673 309.651 115.774L307.502 119.918C307.964 119.872 308.431 119.955 308.848 120.16C309.266 120.364 309.619 120.68 309.867 121.073C311.056 122.913 310.448 126.454 308.693 127.963C308.177 128.409 307.519 128.657 306.837 128.664Z" fill="#97B8FF"/>
<path d="M286.911 231.062C285.579 221.967 275.492 222.099 275.504 235.067C275.516 248.034 285.579 248.756 286.911 239.119" fill="#3E49E3"/>
<path d="M284.144 230.949C277.82 230.537 277.699 240.152 284.973 239.119L284.144 230.949Z" fill="white"/>
<path d="M506.65 171.463C506.104 171.463 505.571 171.301 505.117 170.999C504.663 170.696 504.309 170.265 504.1 169.761C503.891 169.257 503.837 168.703 503.943 168.167C504.049 167.632 504.312 167.141 504.698 166.755C505.084 166.369 505.575 166.106 506.11 166C506.645 165.894 507.2 165.949 507.704 166.158C508.208 166.367 508.639 166.72 508.941 167.174C509.244 167.628 509.406 168.161 509.405 168.707C509.404 169.437 509.114 170.138 508.597 170.654C508.081 171.171 507.38 171.462 506.65 171.463ZM506.65 167.272C506.366 167.271 506.088 167.355 505.852 167.513C505.615 167.67 505.431 167.894 505.322 168.156C505.213 168.418 505.185 168.707 505.24 168.986C505.295 169.264 505.431 169.52 505.632 169.721C505.833 169.922 506.089 170.059 506.367 170.115C506.645 170.17 506.934 170.142 507.197 170.033C507.459 169.925 507.683 169.741 507.841 169.505C507.999 169.268 508.083 168.991 508.083 168.707C508.084 168.326 507.933 167.961 507.664 167.691C507.395 167.421 507.031 167.269 506.65 167.268V167.272Z" fill="white"/>
<path d="M506.961 191.089C505.602 191.09 504.274 190.687 503.144 189.933C502.014 189.178 501.133 188.105 500.613 186.85C500.093 185.595 499.957 184.214 500.221 182.881C500.486 181.548 501.14 180.324 502.101 179.363C503.061 178.402 504.285 177.748 505.618 177.483C506.951 177.218 508.332 177.353 509.587 177.873C510.843 178.393 511.916 179.274 512.67 180.403C513.425 181.533 513.828 182.861 513.828 184.22C513.826 186.041 513.102 187.787 511.815 189.074C510.527 190.362 508.782 191.087 506.961 191.089ZM506.961 178.673C505.863 178.673 504.79 178.998 503.877 179.608C502.964 180.218 502.253 181.085 501.833 182.1C501.412 183.114 501.302 184.23 501.517 185.307C501.731 186.384 502.259 187.373 503.036 188.149C503.812 188.925 504.801 189.454 505.878 189.668C506.955 189.882 508.071 189.773 509.085 189.352C510.099 188.932 510.966 188.221 511.576 187.308C512.186 186.395 512.512 185.322 512.512 184.224C512.511 182.752 511.926 181.341 510.885 180.3C509.844 179.259 508.433 178.675 506.961 178.675V178.673Z" fill="white"/>
<path d="M509.094 185.891H505.02C504.918 185.892 504.817 185.868 504.725 185.822C504.633 185.777 504.553 185.711 504.492 185.629C504.43 185.547 504.389 185.452 504.37 185.351C504.352 185.25 504.357 185.147 504.386 185.049L505.553 180.978C505.606 180.815 505.72 180.679 505.872 180.598C506.023 180.518 506.2 180.499 506.365 180.546C506.53 180.593 506.67 180.702 506.756 180.85C506.842 180.999 506.867 181.175 506.826 181.341L505.902 184.575H509.1C509.275 184.575 509.443 184.644 509.567 184.768C509.691 184.892 509.76 185.06 509.76 185.235C509.76 185.41 509.691 185.578 509.567 185.702C509.443 185.826 509.275 185.895 509.1 185.895L509.094 185.891Z" fill="white"/>
<path d="M508.047 188.684C507.961 188.685 507.874 188.668 507.794 188.635C507.714 188.602 507.641 188.553 507.579 188.492C507.518 188.43 507.469 188.358 507.436 188.277C507.402 188.197 507.385 188.111 507.385 188.024V182.903C507.38 182.814 507.394 182.724 507.425 182.639C507.456 182.555 507.504 182.477 507.566 182.412C507.627 182.347 507.702 182.295 507.785 182.259C507.867 182.223 507.956 182.205 508.046 182.205C508.136 182.205 508.225 182.223 508.308 182.259C508.391 182.295 508.465 182.347 508.527 182.412C508.589 182.477 508.637 182.555 508.668 182.639C508.699 182.724 508.712 182.814 508.708 182.903V188.024C508.708 188.199 508.638 188.367 508.514 188.491C508.39 188.615 508.223 188.684 508.047 188.684Z" fill="white"/>
<path d="M530.66 425.752C530.485 425.752 530.317 425.682 530.193 425.558C530.069 425.435 530 425.267 530 425.092V22.0494H324.686L334.797 31.1511H527.298C527.473 31.1511 527.642 31.2208 527.766 31.345C527.89 31.4692 527.96 31.6376 527.96 31.8132V425.092C527.95 425.261 527.877 425.42 527.754 425.536C527.631 425.653 527.468 425.718 527.299 425.718C527.129 425.718 526.966 425.653 526.843 425.536C526.72 425.42 526.647 425.261 526.637 425.092V32.4734H334.553C334.389 32.4739 334.23 32.4131 334.109 32.3029L322.541 21.8789C322.441 21.7896 322.371 21.6722 322.34 21.5421C322.308 21.4121 322.317 21.2756 322.365 21.1507C322.413 21.0258 322.498 20.9184 322.608 20.8428C322.718 20.7671 322.849 20.7268 322.983 20.7271H530.66C530.747 20.7263 530.834 20.7428 530.914 20.7756C530.995 20.8084 531.069 20.8569 531.131 20.9183C531.192 20.9797 531.242 21.0527 531.275 21.1332C531.309 21.2137 531.326 21.3001 531.326 21.3873V425.092C531.326 425.179 531.309 425.265 531.275 425.346C531.242 425.426 531.192 425.499 531.131 425.561C531.069 425.622 530.995 425.671 530.914 425.703C530.834 425.736 530.747 425.753 530.66 425.752Z" fill="white"/>
<path d="M527.28 32.4734C527.212 32.4728 527.145 32.4621 527.081 32.4417C526.999 32.4149 526.922 32.3721 526.856 32.3158C526.79 32.2595 526.736 32.1907 526.696 32.1133C526.657 32.036 526.633 31.9516 526.627 31.8651C526.62 31.7785 526.63 31.6915 526.657 31.609L530.027 21.185C530.049 21.0977 530.089 21.0158 530.143 20.9443C530.198 20.8728 530.267 20.8132 530.345 20.7693C530.424 20.7253 530.511 20.6979 530.6 20.6887C530.69 20.6796 530.78 20.6888 530.866 20.7159C530.952 20.743 531.032 20.7873 531.1 20.8463C531.168 20.9052 531.223 20.9774 531.262 21.0585C531.301 21.1395 531.324 21.2278 531.327 21.3177C531.331 21.4077 531.316 21.4975 531.284 21.5815L527.914 32.0075C527.873 32.1431 527.788 32.2618 527.674 32.3457C527.56 32.4297 527.421 32.4744 527.28 32.4734Z" fill="white"/>
<path d="M322.965 27.063C322.79 27.0625 322.622 26.9925 322.498 26.8684C322.375 26.7443 322.305 26.5762 322.305 26.4009V21.3872C322.314 21.2181 322.388 21.059 322.511 20.9425C322.634 20.8261 322.797 20.7612 322.966 20.7612C323.136 20.7612 323.299 20.8261 323.421 20.9425C323.544 21.059 323.618 21.2181 323.627 21.3872V26.4009C323.627 26.5765 323.558 26.7449 323.433 26.8691C323.309 26.9933 323.141 27.063 322.965 27.063Z" fill="white"/>
<path d="M447.327 425.752C447.152 425.752 446.984 425.682 446.861 425.558C446.737 425.434 446.667 425.267 446.667 425.091V102.341C446.667 102.165 446.737 101.998 446.861 101.874C446.984 101.75 447.152 101.68 447.327 101.68H521.316C521.485 101.69 521.645 101.763 521.761 101.886C521.877 102.009 521.942 102.172 521.942 102.342C521.942 102.511 521.877 102.674 521.761 102.797C521.645 102.92 521.485 102.993 521.316 103.003H447.988V425.091C447.988 425.267 447.918 425.434 447.794 425.558C447.67 425.682 447.503 425.752 447.327 425.752Z" fill="white"/>
<path d="M283.498 232.535C283.1 234.179 283.111 235.895 283.529 237.533C283.654 238.027 283.954 238.459 284.373 238.749C284.793 239.038 285.303 239.165 285.809 239.105L302.66 237.123C303.233 237.056 303.76 236.781 304.143 236.351C304.526 235.92 304.738 235.364 304.738 234.788C304.738 234.2 304.517 233.633 304.12 233.2C303.723 232.767 303.178 232.498 302.593 232.446L285.716 230.957C285.219 230.912 284.721 231.046 284.314 231.336C283.908 231.625 283.618 232.051 283.498 232.535Z" fill="#97B8FF"/>
<path d="M449.032 408.294C444.601 422.286 421.277 417.39 420.812 426.251H468.158C468.158 426.251 467.458 417.855 464.66 407.36L449.032 408.294Z" fill="#060305"/>
<path d="M433.787 408.294C429.354 422.286 406.032 417.39 405.564 426.251H452.912C452.912 426.251 452.212 417.855 449.413 407.36L433.787 408.294Z" fill="#060305"/>
<path d="M414.709 280.325C414.709 280.325 411.551 329.614 426.539 411.714H444.75L448.949 280.325H414.709Z" fill="#3E49E3"/>
<path d="M388.035 203.52C361.973 224.556 365.113 241.199 377.672 246.54C390.231 251.881 398.092 210.117 398.092 210.117L388.035 203.52Z" fill="#060305"/>
<path d="M389.151 201.531C395.709 196.297 399.779 192.529 406.111 194.414C412.443 196.299 420.131 201.321 420.131 201.321L389.151 201.531Z" fill="#F9C5C7"/>
<path d="M458.265 191.997C468.104 195.058 477.337 193.67 483.964 205.773C502.328 239.313 491.024 280.315 491.024 280.315H403.927C403.927 280.315 403.332 278.938 402.753 276.335C402.753 276.335 380.283 268.528 388.213 251.306C396.143 234.084 411.563 206.071 419.493 201.019C427.423 195.968 435.06 194.895 435.06 194.895L458.265 191.997Z" fill="#060305"/>
<path d="M432.417 156.792C422.431 165.824 419.273 179.563 424.34 190.011L438.329 183.122L432.417 156.792Z" fill="#ED746D"/>
<path d="M455.473 181.893C455.473 181.893 454.3 189.317 458.265 192.003C449.599 209.301 432.417 205.627 435.069 194.912C435.069 194.912 438.007 190.625 438.44 185.879C438.872 181.133 455.473 181.893 455.473 181.893Z" fill="#F9C5C7"/>
<path d="M457.676 180.362C453.39 198.535 428.599 199.039 426.836 179.444C425.074 159.849 439.326 153.725 443.138 153.87C446.951 154.014 454.439 157.849 456.209 162.442C457.979 167.035 459.879 171.024 457.676 180.362Z" fill="#F9C5C7"/>
<path d="M457.676 173.32C466.635 161.227 475.447 182.352 455.474 181.892L457.676 173.32Z" fill="#F9C5C7"/>
<path d="M454.887 166.738L438.218 164.863C438.218 164.863 438.218 162.452 438.438 158.321L435.684 164.635L428.452 163.372C431.39 142.552 458.568 147.756 454.887 166.738Z" fill="#ED746D"/>
<path d="M437.821 184.367C438.074 184.367 438.327 184.352 438.579 184.323C440.728 184.077 442.597 182.808 443.337 181.09C443.405 180.933 443.411 180.756 443.352 180.596C443.293 180.436 443.175 180.304 443.021 180.229C442.946 180.195 442.865 180.176 442.782 180.174C442.699 180.172 442.617 180.186 442.54 180.217C442.463 180.247 442.393 180.293 442.334 180.351C442.275 180.409 442.228 180.478 442.197 180.554C441.634 181.863 440.157 182.834 438.43 183.028C436.628 183.227 435.016 182.539 434.007 181.121C433.959 181.054 433.899 180.996 433.828 180.953C433.758 180.91 433.68 180.881 433.598 180.868C433.517 180.856 433.433 180.86 433.353 180.881C433.273 180.901 433.198 180.938 433.133 180.988C432.999 181.095 432.911 181.248 432.887 181.418C432.863 181.587 432.905 181.759 433.004 181.898C433.545 182.671 434.266 183.3 435.106 183.731C435.946 184.161 436.878 184.379 437.821 184.367Z" fill="#060305"/>
<path d="M424.164 260.703C425.363 260.703 426.606 260.677 427.893 260.615C428.062 260.604 428.219 260.526 428.331 260.398C428.442 260.271 428.499 260.104 428.488 259.935C428.487 259.851 428.469 259.769 428.435 259.692C428.402 259.615 428.353 259.545 428.293 259.487C428.232 259.43 428.16 259.385 428.082 259.355C428.003 259.325 427.919 259.312 427.836 259.315C416.206 259.864 407.985 257.646 406.649 257.257C401.351 249.87 404.121 244.535 408.685 235.741C409.745 233.699 410.945 231.379 412.124 228.868C412.198 228.714 412.209 228.538 412.155 228.376C412.102 228.214 411.988 228.079 411.837 227.999C411.763 227.962 411.682 227.94 411.599 227.935C411.516 227.93 411.433 227.941 411.355 227.969C411.277 227.997 411.205 228.041 411.145 228.098C411.084 228.154 411.036 228.223 411.002 228.299C409.834 230.789 408.693 232.991 407.586 235.12C402.914 244.123 399.829 250.072 405.78 258.217C405.858 258.325 405.968 258.405 406.095 258.445C406.173 258.47 413.338 260.703 424.164 260.703Z" fill="#3E49E3"/>
<path d="M402.753 276.995C402.826 276.995 402.899 276.982 402.967 276.955C403.125 276.891 403.252 276.768 403.321 276.613C403.39 276.457 403.396 276.281 403.338 276.121C403.298 276.008 399.472 264.82 406.684 258.314C406.81 258.198 406.887 258.038 406.899 257.868C406.911 257.697 406.857 257.528 406.748 257.396C406.695 257.332 406.631 257.279 406.558 257.241C406.484 257.202 406.404 257.179 406.322 257.173C406.239 257.167 406.156 257.178 406.078 257.205C406 257.232 405.928 257.275 405.867 257.33C397.997 264.432 402.124 276.45 402.166 276.561C402.207 276.685 402.285 276.794 402.39 276.872C402.495 276.95 402.622 276.993 402.753 276.995Z" fill="#3E49E3"/>
<path d="M442.754 208.307H443.099C447.091 208.194 454.73 206.061 461.024 193.058C461.099 192.905 461.112 192.729 461.061 192.567C461.009 192.404 460.898 192.268 460.749 192.186C460.675 192.147 460.595 192.124 460.512 192.118C460.429 192.111 460.346 192.122 460.268 192.149C460.189 192.176 460.117 192.218 460.055 192.274C459.994 192.33 459.945 192.398 459.91 192.473C455.527 201.529 449.385 206.826 443.059 207.007C439.292 207.132 435.86 205.306 434.261 202.405C433.043 200.199 433.097 197.768 434.409 195.558C434.497 195.412 434.526 195.237 434.489 195.07C434.452 194.903 434.353 194.757 434.211 194.662C434.141 194.617 434.064 194.587 433.982 194.573C433.9 194.559 433.817 194.562 433.737 194.582C433.656 194.602 433.581 194.638 433.515 194.687C433.449 194.737 433.394 194.8 433.353 194.872C431.806 197.471 431.745 200.453 433.18 203.054C434.958 206.269 438.689 208.307 442.754 208.307Z" fill="#3E49E3"/>
<path d="M436.364 287.925H369.415C369.415 287.925 366.217 232.676 390.005 213.876C390.005 213.876 386.421 214.556 385.144 211.83C384.228 209.872 384.623 205.383 387.83 201.214C390.307 197.996 413.999 198.815 418.204 199.168C418.204 199.168 423.319 201.981 426.39 207.354C434.778 222.044 438.666 258.189 436.364 287.925Z" fill="white"/>
<path d="M414.109 287.823H414.14C414.317 287.815 414.484 287.737 414.603 287.606C414.722 287.475 414.785 287.302 414.777 287.125C414.757 286.713 413.03 245.378 427.013 207.585C427.065 207.439 427.065 207.278 427.013 207.131C426.941 206.933 425.187 202.114 418.512 198.579C418.369 198.501 418.202 198.479 418.044 198.515C417.885 198.552 417.746 198.645 417.651 198.777C417.524 198.958 414.58 203.337 415.867 214.201C415.882 214.321 415.929 214.435 416.003 214.531C416.078 214.626 416.177 214.7 416.29 214.743C416.403 214.787 416.526 214.799 416.645 214.778C416.764 214.757 416.876 214.705 416.967 214.625C416.997 214.6 419.963 212.02 424.897 207.853C424.994 207.771 425.066 207.664 425.103 207.543C425.141 207.422 425.144 207.292 425.111 207.17C425.078 207.047 425.011 206.937 424.918 206.851C424.825 206.765 424.709 206.708 424.584 206.685C424.425 206.658 420.659 206.013 418.27 208.121C418.16 208.243 418.098 208.402 418.098 208.566C418.098 208.731 418.158 208.89 418.267 209.013C418.377 209.136 418.528 209.214 418.692 209.232C418.855 209.25 419.02 209.208 419.154 209.112C420.199 208.19 421.654 207.942 422.76 207.905C420.113 210.151 418.153 211.836 417.066 212.772C416.38 205.337 417.824 201.388 418.454 200.054C423.438 202.881 425.264 206.451 425.661 207.346C411.676 245.334 413.413 286.753 413.43 287.167C413.434 287.344 413.507 287.512 413.634 287.635C413.761 287.758 413.932 287.826 414.109 287.823Z" fill="#97B8FF"/>
<path d="M389.938 214.798H416.539C416.63 214.803 416.72 214.789 416.806 214.758C416.891 214.727 416.969 214.678 417.035 214.616C417.101 214.553 417.153 214.478 417.189 214.395C417.225 214.311 417.244 214.222 417.244 214.131C417.244 214.04 417.225 213.95 417.189 213.867C417.153 213.783 417.101 213.708 417.035 213.646C416.969 213.583 416.891 213.535 416.806 213.504C416.72 213.472 416.63 213.459 416.539 213.464H389.938C389.767 213.473 389.607 213.547 389.489 213.671C389.372 213.795 389.306 213.96 389.306 214.131C389.306 214.302 389.372 214.466 389.489 214.59C389.607 214.714 389.767 214.789 389.938 214.798Z" fill="#97B8FF"/>
<path d="M378.62 259.723H402.025L404.517 246.104H381.114L378.62 259.723Z" fill="#97B8FF"/>
<path d="M435.343 262.657L430.738 266.216C430.738 266.216 425.086 264.543 419.015 268.31C412.945 272.076 406.454 274.798 406.454 274.798C406.454 274.798 407.501 277.52 411.27 276.684C415.039 275.847 416.922 275.845 416.922 275.845L404.363 287.986C404.363 287.986 404.989 291.336 410.223 289.033C410.223 289.033 413.153 290.079 418.177 287.986C423.2 285.892 428.016 285.474 435.762 275.427L440.785 273.228L435.343 262.657Z" fill="#F9C5C7"/>
<path d="M404.083 196.087C408.27 199.854 412.874 207.532 412.874 207.532C412.874 207.532 412.317 209.485 408.968 206.973C405.62 204.461 401.222 198.181 401.222 198.181C401.222 198.181 403.316 201.531 404.153 204.043C404.989 206.555 404.989 209.695 404.989 209.695C404.989 209.695 401.431 209.485 401.012 203.833L394.942 199.019L399.337 195.669L404.083 196.087Z" fill="#F9C5C7"/>
<path d="M407.073 196.109C411.173 198.028 415.079 200.338 418.736 203.008C416.107 206.128 411.837 203.172 406.581 199.394C401.325 195.615 407.073 196.109 407.073 196.109Z" fill="#F9C5C7"/>
<path d="M432.621 262.548L439.843 276.68L465.277 273.539L451.461 250.618L432.621 262.548Z" fill="#060305"/>
<path d="M437.332 260.705C437.483 260.705 437.63 260.653 437.748 260.558C437.934 260.409 456.681 245.552 475.443 242.168C475.617 242.137 475.771 242.037 475.872 241.892C475.973 241.747 476.012 241.567 475.98 241.393C475.949 241.219 475.849 241.065 475.704 240.964C475.559 240.863 475.379 240.824 475.205 240.856C456.106 244.3 437.104 259.365 436.913 259.517C436.804 259.603 436.724 259.721 436.686 259.855C436.647 259.988 436.651 260.13 436.697 260.262C436.743 260.393 436.829 260.506 436.943 260.586C437.057 260.666 437.193 260.708 437.332 260.707V260.705Z" fill="#3E49E3"/>
<path d="M464.648 245.318H464.666C464.754 245.316 464.84 245.297 464.92 245.261C465 245.225 465.073 245.174 465.133 245.11C465.193 245.046 465.24 244.971 465.271 244.889C465.303 244.807 465.317 244.72 465.315 244.633C465.005 233.816 466.863 217.262 466.881 217.096C466.892 216.924 466.837 216.755 466.727 216.623C466.617 216.491 466.46 216.406 466.29 216.387C466.119 216.367 465.947 216.414 465.81 216.518C465.673 216.622 465.582 216.775 465.554 216.945C465.537 217.113 463.669 233.76 463.98 244.67C463.985 244.844 464.058 245.009 464.183 245.13C464.308 245.251 464.475 245.319 464.648 245.318Z" fill="#3E49E3"/>
<path d="M441.098 277.661C441.139 277.661 441.18 277.657 441.219 277.649C441.525 277.592 471.845 271.951 483.05 268.53C494.715 264.961 493.924 245.152 493.884 244.311C493.871 244.138 493.791 243.977 493.661 243.861C493.531 243.746 493.361 243.686 493.188 243.694C493.014 243.702 492.85 243.777 492.731 243.904C492.612 244.031 492.547 244.199 492.55 244.373C492.56 244.571 493.343 263.999 482.662 267.253C471.522 270.657 441.277 276.285 440.974 276.341C440.811 276.372 440.665 276.462 440.565 276.595C440.466 276.727 440.419 276.892 440.434 277.057C440.449 277.223 440.525 277.376 440.647 277.489C440.769 277.601 440.929 277.664 441.095 277.665L441.098 277.661Z" fill="#3E49E3"/>
<path d="M484.563 280.326C484.563 280.326 487.037 297.585 477.87 305.047C477.87 305.047 472.967 383.725 469.242 411.706H444.75C444.75 411.706 439.617 375.943 438.144 344.223C436.671 312.503 437.006 280.318 437.006 280.318L484.563 280.326Z" fill="#3E49E3"/>
<path d="M444.748 412.376C444.59 412.375 444.438 412.319 444.318 412.216C444.199 412.113 444.12 411.971 444.096 411.815C444.013 411.278 435.805 357.472 436.352 298.517C435.177 297.547 430.252 293.412 427.952 290.224C427.902 290.154 427.865 290.074 427.845 289.99C427.825 289.905 427.822 289.818 427.836 289.732C427.85 289.647 427.88 289.565 427.926 289.491C427.971 289.417 428.031 289.353 428.101 289.302C428.171 289.251 428.251 289.215 428.335 289.195C428.42 289.175 428.507 289.172 428.593 289.186C428.678 289.199 428.76 289.23 428.834 289.276C428.908 289.321 428.972 289.381 429.023 289.451C431.489 292.867 437.373 297.645 437.433 297.692C437.51 297.755 437.572 297.834 437.615 297.924C437.657 298.014 437.679 298.112 437.679 298.212C437.098 357.185 445.319 411.075 445.41 411.611C445.437 411.784 445.394 411.961 445.291 412.102C445.187 412.244 445.032 412.339 444.859 412.366C444.822 412.371 444.785 412.375 444.748 412.376Z" fill="#97B8FF"/>
<path d="M460.919 293.503C460.817 293.502 460.716 293.479 460.624 293.434C452.575 289.411 448.519 280.966 448.35 280.607C448.292 280.452 448.294 280.28 448.356 280.127C448.418 279.973 448.535 279.848 448.685 279.777C448.835 279.706 449.006 279.694 449.165 279.744C449.323 279.793 449.457 279.9 449.54 280.044C449.579 280.127 453.578 288.438 461.209 292.25C461.343 292.316 461.451 292.426 461.515 292.561C461.579 292.696 461.595 292.849 461.561 292.995C461.526 293.14 461.444 293.27 461.326 293.362C461.208 293.455 461.063 293.504 460.913 293.503H460.919Z" fill="#97B8FF"/>
<path d="M420.812 426.913C420.767 426.914 420.722 426.909 420.679 426.899C420.507 426.864 420.356 426.762 420.259 426.616C420.163 426.469 420.128 426.29 420.163 426.118C420.978 422.187 425.746 420.789 431.783 419.017C437.155 417.441 443.842 415.48 450.113 411.168C450.184 411.115 450.266 411.076 450.353 411.054C450.439 411.033 450.53 411.029 450.618 411.044C450.706 411.058 450.79 411.09 450.866 411.138C450.941 411.186 451.006 411.249 451.057 411.322C451.108 411.396 451.143 411.479 451.16 411.567C451.178 411.654 451.178 411.745 451.159 411.832C451.141 411.92 451.106 412.003 451.055 412.076C451.003 412.149 450.938 412.211 450.862 412.259C444.415 416.688 437.617 418.682 432.155 420.286C426.323 421.997 422.11 423.232 421.45 426.386C421.42 426.534 421.34 426.667 421.224 426.763C421.108 426.859 420.962 426.912 420.812 426.913Z" fill="#3E49E3"/>
<path d="M429.768 174.222C429.58 174.222 429.394 174.182 429.222 174.104C429.05 174.026 428.897 173.913 428.773 173.771C428.649 173.629 428.556 173.463 428.502 173.282C428.447 173.102 428.431 172.912 428.456 172.725L428.63 171.415C428.682 171.072 428.867 170.764 429.144 170.556C429.422 170.348 429.77 170.257 430.113 170.303C430.457 170.349 430.769 170.528 430.982 170.802C431.194 171.075 431.291 171.422 431.251 171.766L431.077 173.076C431.034 173.393 430.878 173.684 430.637 173.895C430.397 174.105 430.088 174.222 429.768 174.222Z" fill="#060305"/>
<path d="M441.402 175.533C441.342 175.532 441.282 175.529 441.223 175.521C440.876 175.473 440.562 175.29 440.349 175.012C440.136 174.733 440.043 174.381 440.089 174.034L440.266 172.725C440.289 172.553 440.345 172.388 440.432 172.238C440.52 172.087 440.635 171.956 440.773 171.851C440.911 171.745 441.068 171.668 441.236 171.624C441.404 171.579 441.579 171.568 441.751 171.591C441.923 171.614 442.088 171.671 442.238 171.758C442.388 171.845 442.52 171.961 442.625 172.099C442.73 172.237 442.807 172.394 442.852 172.562C442.897 172.729 442.908 172.904 442.885 173.076L442.71 174.387C442.667 174.704 442.511 174.994 442.271 175.205C442.03 175.416 441.721 175.532 441.402 175.533Z" fill="#060305"/>
<path d="M432.163 178.225C432.031 178.225 431.902 178.185 431.792 178.111C431.683 178.037 431.598 177.932 431.549 177.809C431.5 177.686 431.489 177.551 431.518 177.422C431.546 177.293 431.613 177.176 431.709 177.085C433.315 175.558 434.156 173.203 434.164 173.179C434.221 173.014 434.343 172.878 434.5 172.802C434.658 172.726 434.84 172.716 435.005 172.774C435.171 172.832 435.306 172.953 435.382 173.111C435.458 173.269 435.468 173.45 435.411 173.615C435.373 173.724 434.461 176.292 432.619 178.042C432.497 178.16 432.333 178.225 432.163 178.225Z" fill="#060305"/>
<path d="M433.72 168.489C433.622 168.488 433.525 168.466 433.436 168.425C433.406 168.409 430.417 167.018 428.301 167.981C428.142 168.054 427.96 168.061 427.796 167.999C427.632 167.938 427.499 167.814 427.426 167.655C427.353 167.496 427.347 167.314 427.408 167.15C427.469 166.986 427.593 166.853 427.752 166.78C430.433 165.559 433.86 167.162 434.005 167.232C434.141 167.296 434.251 167.405 434.316 167.54C434.382 167.675 434.4 167.828 434.366 167.975C434.333 168.121 434.251 168.252 434.133 168.345C434.016 168.439 433.87 168.489 433.72 168.489Z" fill="#060305"/>
<path d="M446.277 171.1C446.178 171.1 446.081 171.078 445.992 171.036C445.904 170.994 445.825 170.932 445.763 170.856C445.628 170.689 442.415 166.819 438.031 168.455C437.949 168.491 437.86 168.51 437.77 168.51C437.68 168.511 437.591 168.493 437.508 168.458C437.425 168.422 437.351 168.371 437.288 168.306C437.226 168.241 437.178 168.164 437.146 168.079C437.115 167.995 437.101 167.905 437.106 167.815C437.11 167.725 437.133 167.637 437.172 167.557C437.212 167.476 437.268 167.404 437.336 167.345C437.404 167.287 437.484 167.243 437.57 167.216C442.851 165.245 446.749 169.978 446.788 170.025C446.843 170.093 446.884 170.17 446.908 170.253C446.933 170.336 446.941 170.424 446.932 170.51C446.922 170.596 446.896 170.679 446.855 170.756C446.813 170.832 446.757 170.899 446.689 170.953C446.573 171.048 446.427 171.1 446.277 171.1Z" fill="#060305"/>
<path d="M455.925 185.405C455.797 185.286 455.627 185.222 455.452 185.228C455.277 185.233 455.112 185.308 454.992 185.435L452.065 188.562L449.756 179.789L454.91 177.241C454.989 177.204 455.06 177.151 455.119 177.086C455.177 177.021 455.222 176.945 455.252 176.862C455.281 176.779 455.293 176.692 455.289 176.604C455.284 176.517 455.262 176.431 455.225 176.352C455.187 176.273 455.134 176.203 455.069 176.144C455.004 176.085 454.928 176.04 454.845 176.011C454.763 175.982 454.675 175.969 454.588 175.974C454.5 175.979 454.414 176 454.335 176.038L448.826 178.754C445.852 178.742 433.717 172.904 425.262 176.447C425.262 176.447 424.764 186.186 431.332 191.728C436.788 196.333 445.692 196.761 449.887 192.826L455.953 186.343C456.013 186.28 456.06 186.205 456.091 186.124C456.123 186.043 456.137 185.956 456.135 185.868C456.132 185.781 456.112 185.695 456.076 185.616C456.04 185.536 455.989 185.465 455.925 185.405Z" fill="white"/>
<path d="M447.837 153.725C469.571 153.725 472.949 176.994 466.048 185.721L450.825 188.996C450.825 188.996 455.62 177.914 451.508 162.757L447.837 153.725Z" fill="#ED746D"/>
<path d="M454.886 167.388C455.036 167.386 455.18 167.331 455.292 167.232C455.405 167.134 455.479 166.999 455.501 166.851C456.026 163.729 455.997 156.913 452.131 153.461C452.069 153.406 451.997 153.364 451.919 153.338C451.841 153.311 451.758 153.301 451.675 153.308C451.593 153.315 451.513 153.338 451.44 153.377C451.367 153.415 451.302 153.468 451.251 153.533C451.143 153.665 451.089 153.834 451.102 154.004C451.114 154.174 451.192 154.334 451.318 154.449C454.31 157.123 454.777 162.577 454.361 165.985L452.418 165.638C452.336 165.624 452.251 165.627 452.17 165.646C452.089 165.666 452.012 165.701 451.945 165.751C451.878 165.8 451.821 165.863 451.778 165.935C451.736 166.007 451.708 166.086 451.697 166.169C451.667 166.336 451.703 166.508 451.799 166.648C451.894 166.789 452.04 166.886 452.206 166.921L454.783 167.378C454.817 167.384 454.852 167.388 454.886 167.388Z" fill="#9D3D39"/>
</svg>
